<svg xmlns="http://www.w3.org/2000/svg" width="15" height="15" viewBox="0 0 15 15">
    <path fill="#171A1E" fill-rule="nonzero" d="M0 0h15v15H0V0zm3.58 5.017V9.47a.513.513 0 0 1-.137.443l-1.058 1.283v.17h3.001v-.17L4.328 9.913a.531.531 0 0 1-.146-.443V5.62l2.634 5.747h.306l2.263-5.747v4.58c0 .123 0 .146-.08.226l-.814.79v.17h3.952v-.17l-.786-.771a.235.235 0 0 1-.09-.226V4.551a.235.235 0 0 1 .09-.226l.805-.771v-.17H9.677L7.69 8.338 5.433 3.385H2.512v.169l.94 1.133a.39.39 0 0 1 .128.33z"/>
</svg>
