<svg xmlns="http://www.w3.org/2000/svg" width="15" height="15" viewBox="0 0 15 15">
    <g fill="#3B55F7" fill-rule="evenodd">
        <path fill-rule="nonzero" d="M11.555 13.541h1.862a.928.928 0 0 0 .939-.939V3.244a.92.92 0 0 0-.272-.66.9.9 0 0 0-.667-.28h-1.862a.905.905 0 0 0-.668.28.91.91 0 0 0-.271.66v9.358a.927.927 0 0 0 .939.939zm-.078-10.297c0-.031.046-.078.078-.078h1.862c.054 0 .078.023.078.078v9.358c0 .054-.024.078-.078.078h-1.862c-.055 0-.078-.024-.078-.078V3.244zM7.038 13.541h1.863a.928.928 0 0 0 .939-.939V5.37a.907.907 0 0 0-.272-.66.913.913 0 0 0-.667-.271H7.038a.896.896 0 0 0-.66.28.9.9 0 0 0-.27.65v7.233c0 .264.092.49.27.668a.908.908 0 0 0 .66.271zM6.961 5.37c0-.054.023-.078.077-.078h1.863c.054 0 .077.024.077.078v7.232c0 .054-.023.078-.077.078H7.038c-.054 0-.077-.024-.077-.078V5.37zM2.53 13.541h1.854c.256 0 .48-.095.66-.271a.9.9 0 0 0 .28-.668V9.374a.89.89 0 0 0-.28-.652.906.906 0 0 0-.66-.28H2.53a.913.913 0 0 0-.668.272.908.908 0 0 0-.271.66v3.228c0 .528.411.94.939.94zm-.078-4.167c0-.054.023-.077.078-.077h1.854c.031 0 .086.046.086.077v3.228c0 .054-.031.078-.086.078H2.53c-.055 0-.078-.024-.078-.078V9.374z"/>
        <path d="M14.573 14.146H.861V.426A.427.427 0 0 0 .427 0 .42.42 0 0 0 0 .427v14.146c0 .24.186.427.427.427h14.146a.42.42 0 0 0 .427-.427.42.42 0 0 0-.427-.427z"/>
    </g>
</svg>
