<svg xmlns="http://www.w3.org/2000/svg" width="15" height="15" viewBox="0 0 15 15">
    <g fill="#3B55F7" fill-rule="nonzero">
        <path d="M14.223 5.922l-1.052-.179a5.941 5.941 0 0 0-.423-1.02l.62-.868a.923.923 0 0 0-.1-1.193l-.933-.933a.92.92 0 0 0-1.19-.1l-.87.62a5.88 5.88 0 0 0-1.059-.436L9.041.773A.925.925 0 0 0 8.126 0H6.808a.925.925 0 0 0-.914.774l-.182 1.064c-.35.11-.692.254-1.018.43l-.861-.62a.92.92 0 0 0-.539-.173.914.914 0 0 0-.654.272l-.936.934a.927.927 0 0 0-.1 1.193l.626.88c-.173.328-.31.67-.417 1.024l-1.04.175A.925.925 0 0 0 0 6.867v1.319c0 .454.326.84.773.914l1.065.182c.11.35.254.692.43 1.018l-.618.858a.923.923 0 0 0 .1 1.193l.934.933a.92.92 0 0 0 1.19.1l.88-.626c.316.166.648.3.99.407l.175 1.052c.075.448.46.774.914.774h1.321c.455 0 .84-.326.915-.774l.178-1.052c.354-.11.696-.25 1.021-.423l.868.62a.92.92 0 0 0 1.193-.1l.933-.933a.927.927 0 0 0 .1-1.193l-.62-.87c.172-.33.316-.671.423-1.022l1.052-.175a.925.925 0 0 0 .774-.914V6.836a.914.914 0 0 0-.768-.914zm-.072 2.233c0 .04-.028.075-.069.08l-1.315.22a.42.42 0 0 0-.338.31c-.119.46-.3.902-.545 1.312a.423.423 0 0 0 .019.46l.773 1.09a.085.085 0 0 1-.009.107l-.933.933a.08.08 0 0 1-.06.025.077.077 0 0 1-.047-.016l-1.086-.773a.423.423 0 0 0-.46-.019c-.41.244-.852.426-1.313.545a.416.416 0 0 0-.31.338l-.222 1.315a.081.081 0 0 1-.082.07H6.836a.081.081 0 0 1-.081-.07l-.22-1.315a.42.42 0 0 0-.31-.338 5.205 5.205 0 0 1-1.283-.526.433.433 0 0 0-.213-.056.412.412 0 0 0-.245.078l-1.096.78a.093.093 0 0 1-.047.015.084.084 0 0 1-.06-.025l-.932-.933a.085.085 0 0 1-.01-.106l.77-1.08a.429.429 0 0 0 .02-.464 4.966 4.966 0 0 1-.552-1.31.429.429 0 0 0-.338-.31L.914 8.268a.081.081 0 0 1-.068-.081V6.867c0-.04.028-.075.068-.081l1.306-.22c.166-.027.3-.15.342-.312.115-.46.294-.905.535-1.316a.418.418 0 0 0-.022-.457l-.78-1.096a.085.085 0 0 1 .01-.106l.933-.933a.08.08 0 0 1 .06-.026c.018 0 .034.007.046.016l1.08.77c.139.098.32.104.464.02a4.966 4.966 0 0 1 1.31-.552.429.429 0 0 0 .31-.338L6.732.91a.081.081 0 0 1 .081-.069h1.319c.04 0 .075.029.081.07l.22 1.305c.027.166.15.3.312.341.473.12.924.304 1.344.552a.423.423 0 0 0 .46-.02l1.08-.776a.093.093 0 0 1 .047-.015c.013 0 .038.003.06.025l.933.933a.085.085 0 0 1 .01.106l-.774 1.087a.423.423 0 0 0-.019.46c.245.41.426.852.545 1.312.04.163.176.285.338.31l1.316.223c.04.006.068.04.068.081v1.319h-.003z"/>
        <path d="M7.497 4.259a3.237 3.237 0 0 0-3.235 3.235 3.237 3.237 0 0 0 3.235 3.235 3.237 3.237 0 0 0 3.235-3.235 3.237 3.237 0 0 0-3.235-3.235zm0 5.624a2.39 2.39 0 0 1-2.39-2.39 2.39 2.39 0 0 1 2.39-2.389 2.39 2.39 0 0 1 2.39 2.39 2.39 2.39 0 0 1-2.39 2.39z"/>
    </g>
</svg>
