<?xml version="1.0" encoding="UTF-8"?>
<svg width="15px" height="14px" viewBox="0 0 15 14" version="1.1" xmlns="http://www.w3.org/2000/svg" xmlns:xlink="http://www.w3.org/1999/xlink">
    <!-- Generator: sketchtool 54.1 (76490) - https://sketchapp.com -->
    <title>DD89E2A1-D851-4B80-AB87-1C12993D1E1B</title>
    <desc>Created with sketchtool.</desc>
    <g id="JOBGEAR" stroke="none" stroke-width="1" fill="none" fill-rule="evenodd">
        <g id="Main-page-design" transform="translate(-1015.000000, -17.000000)" fill="#FFFFFF" fill-rule="nonzero">
            <path d="M1022.5,28.7458496 L1019.29963,30.431044 C1018.81095,30.6883628 1018.2062,30.5008097 1017.94888,30.0121324 C1017.84621,29.8171443 1017.81082,29.5937018 1017.84821,29.3765293 L1018.46196,25.8120397 L1015.87027,23.2890575 C1015.47454,22.9038137 1015.46603,22.2707058 1015.85128,21.8749715 C1016.00499,21.7170688 1016.20656,21.6143635 1016.42466,21.5828168 L1020.00435,21.0650355 L1021.60298,17.8205524 C1021.84708,17.3251398 1022.44657,17.1214107 1022.94198,17.3655108 C1023.13966,17.4629096 1023.29962,17.6228768 1023.39702,17.8205524 L1024.99565,21.0650355 L1028.57534,21.5828168 C1029.12193,21.6618788 1029.50094,22.1690752 1029.42188,22.7156716 C1029.39034,22.9337702 1029.28763,23.1353406 1029.12973,23.2890575 L1026.53804,25.8120397 L1027.15179,29.3765293 C1027.2455,29.9208049 1026.88025,30.4379985 1026.33598,30.5317137 C1026.1188,30.5691071 1025.89536,30.5337173 1025.70037,30.431044 L1022.5,28.7458496 Z" id="Star"></path>
        </g>
    </g>
</svg>