<svg xmlns="http://www.w3.org/2000/svg" width="17" height="14" viewBox="0 0 17 14">
    <g fill="#171A1E" fill-rule="evenodd">
        <path fill-rule="nonzero" d="M15.553 2.115h-3.535v-.698c0-.77-.634-1.395-1.414-1.395H6.363c-.78 0-1.414.626-1.414 1.395v.698H1.414C.634 2.115 0 2.741 0 3.511v2.093C0 6.374.634 7 1.414 7H7.07v-.349c0-.193.158-.349.353-.349h2.12c.196 0 .354.156.354.35V7h5.656c.78 0 1.414-.626 1.414-1.396V3.511c0-.77-.634-1.396-1.414-1.396zm-4.949 0H6.363v-.698h4.241v.698z"/>
        <path d="M16.77 7.376a.358.358 0 0 0-.37.035 1.408 1.408 0 0 1-.847.287H9.897v1.047a.351.351 0 0 1-.353.348H7.423a.351.351 0 0 1-.353-.348V7.698H1.414c-.303 0-.596-.1-.847-.287A.355.355 0 0 0 0 7.689v4.894c0 .77.634 1.395 1.414 1.395h14.139c.78 0 1.414-.626 1.414-1.395V7.689a.349.349 0 0 0-.196-.313z"/>
    </g>
</svg>
