<svg xmlns="http://www.w3.org/2000/svg" width="15" height="15" viewBox="0 0 15 15">
    <g fill="#171A1E" fill-rule="nonzero">
        <path d="M10.313 0H4.686A4.688 4.688 0 0 0 0 4.688v5.625C0 12.9 2.1 15 4.688 15h5.625C12.9 15 15 12.9 15 10.312V4.689C15 2.099 12.9 0 10.312 0zm3.28 10.313a3.285 3.285 0 0 1-3.28 3.28H4.686a3.285 3.285 0 0 1-3.28-3.28V4.686a3.285 3.285 0 0 1 3.28-3.28h5.625a3.285 3.285 0 0 1 3.282 3.28v5.625z"/>
        <path d="M7.5 3.75a3.75 3.75 0 1 0 0 7.5 3.75 3.75 0 0 0 0-7.5zm0 6.094A2.347 2.347 0 0 1 5.156 7.5 2.346 2.346 0 0 1 7.5 5.156 2.346 2.346 0 0 1 9.844 7.5 2.347 2.347 0 0 1 7.5 9.844z"/>
        <circle cx="11.531" cy="3.469" r="1"/>
    </g>
</svg>
