<svg xmlns="http://www.w3.org/2000/svg" width="11" height="14" viewBox="0 0 11 14">
    <path fill="#FFF" fill-rule="nonzero" d="M2.36 13.531c-.095-1.16-.085-1.99.03-2.49.157-.679 1.01-4.314 1.01-4.314s-.258-.522-.258-1.29c0-1.205.695-2.108 1.558-2.108.735 0 1.09.556 1.09 1.222 0 .745-.469 1.86-.712 2.891-.205.864.43 1.568 1.275 1.568 1.528 0 2.707-1.626 2.707-3.974 0-2.072-1.482-3.526-3.598-3.526-2.45 0-3.886 1.855-3.886 3.765 0 .748.283 1.552.639 1.985.07.087.08.163.06.25-.064.272-.21.869-.24.987-.037.163-.123.197-.287.12C.674 8.117 0 6.532 0 5.252 0 2.517 1.974 0 5.69 0 8.677 0 11 2.149 11 5.014c0 2.994-1.873 5.404-4.478 5.404-.872 0-1.69-.456-1.981-.999l-.538 2.063c-.193.757-.721 1.703-1.076 2.278-.237.384-.426.307-.566-.229z"/>
</svg>
