<svg xmlns="http://www.w3.org/2000/svg" width="10" height="15" viewBox="0 0 10 15">
    <g fill="#3B55F7" fill-rule="nonzero">
        <path d="M4.996 5.76c.837 0 1.553-.279 2.149-.845.595-.566.889-1.247.889-2.043s-.296-1.467-.89-2.027C6.548.281 5.834 0 4.997 0c-.837 0-1.543.281-2.14.845-.594.56-.89 1.231-.89 2.027s.294 1.477.89 2.043c.595.566 1.303.845 2.14.845zM3.537 1.485A2.056 2.056 0 0 1 4.996.903c.578 0 1.061.197 1.467.582.406.386.613.854.613 1.387 0 .55-.207 1.017-.613 1.403a2.04 2.04 0 0 1-1.467.575 2.048 2.048 0 0 1-1.459-.575 1.869 1.869 0 0 1-.613-1.403c0-.533.208-1.001.613-1.387zM9.976 10.2v-.205c0-1.978-1.864-3.726-3.945-3.726H4.003c-1.07 0-1.994.41-2.762 1.124C.473 8.107.007 8.976.007 9.995v4.02c0 .558.458.985 1.044.985H8.95c.284 0 .533-.1.733-.287a.913.913 0 0 0 .31-.698V10.2c0 .623-.016.615-.016 0zm-1.027 3.897H1.05c-.06 0-.086-.024-.086-.082v-3.832c0-.787.283-1.47.855-2.051a3.162 3.162 0 0 1 2.097-.96l.699.878-.76 4.349 1.14 1.23 1.148-1.23-.76-4.35.7-.877a3.16 3.16 0 0 1 2.028.902c.56.542.906 1.19.906 1.953v.173l.017 3.815c0 .058-.026.082-.086.082z"/>
    </g>
</svg>
