<?xml version="1.0" encoding="UTF-8"?>
<svg width="19px" height="19px" viewBox="0 0 19 19" version="1.1" xmlns="http://www.w3.org/2000/svg" xmlns:xlink="http://www.w3.org/1999/xlink">
    <!-- Generator: sketchtool 54.1 (76490) - https://sketchapp.com -->
    <title>47EDCF57-8462-4F07-93DA-F515EEDA5BA9</title>
    <desc>Created with sketchtool.</desc>
    <g id="JOBGEAR" stroke="none" stroke-width="1" fill="none" fill-rule="evenodd">
        <g id="Style-guide-page-1" transform="translate(-1083.000000, -3684.000000)" fill="#FFFFFF" fill-rule="nonzero">
            <g id="Search-Copy-3" transform="translate(1083.000000, 3684.000000)">
                <path d="M18.7111175,17.3059895 L14.0272924,12.6028508 C15.2315861,11.220693 15.8914258,9.48165572 15.8914258,7.6712425 C15.8914258,3.44138609 12.3269099,0 7.94571289,0 C3.56451589,0 0,3.44138609 0,7.6712425 C0,11.9010989 3.56451589,15.342485 7.94571289,15.342485 C9.59047546,15.342485 11.1578537,14.8635326 12.4979154,13.9543236 L17.2173234,18.6931503 C17.4145844,18.8909349 17.6799021,19 17.9642204,19 C18.2333383,19 18.4886375,18.9009409 18.6824438,18.7208335 C19.094239,18.338272 19.1073667,17.7038936 18.7111175,17.3059895 Z M7.94571289,2.00119369 C11.1841091,2.00119369 13.8186311,4.54471088 13.8186311,7.6712425 C13.8186311,10.7977741 11.1841091,13.3412913 7.94571289,13.3412913 C4.70731669,13.3412913 2.07279467,10.7977741 2.07279467,7.6712425 C2.07279467,4.54471088 4.70731669,2.00119369 7.94571289,2.00119369 Z" id="Path"></path>
            </g>
        </g>
    </g>
</svg>