<?xml version="1.0" encoding="UTF-8"?>
<svg width="15px" height="16px" viewBox="0 0 15 16" version="1.1" xmlns="http://www.w3.org/2000/svg" xmlns:xlink="http://www.w3.org/1999/xlink">
    <!-- Generator: sketchtool 54.1 (76490) - https://sketchapp.com -->
    <title>35DCA7E0-28B3-43BF-9E0F-062F87F8A789</title>
    <desc>Created with sketchtool.</desc>
    <g id="JOBGEAR" stroke="none" stroke-width="1" fill="none" fill-rule="evenodd">
        <g id="Style-guide-page-1" transform="translate(-154.000000, -2226.000000)" fill-rule="nonzero" stroke="#D00C27">
            <path d="M161.5,2238.74585 L158.299627,2240.43104 C157.810949,2240.68836 157.2062,2240.50081 156.948881,2240.01213 C156.846208,2239.81714 156.810818,2239.5937 156.848212,2239.37653 L157.461957,2235.81204 L154.870272,2233.28906 C154.474538,2232.90381 154.466034,2232.27071 154.851278,2231.87497 C155.004994,2231.71707 155.206565,2231.61436 155.424663,2231.58282 L159.004352,2231.06504 L160.602976,2227.82055 C160.847076,2227.32514 161.44657,2227.12141 161.941982,2227.36551 C162.139658,2227.46291 162.299625,2227.62288 162.397024,2227.82055 L163.995648,2231.06504 L167.575337,2231.58282 C168.121933,2231.66188 168.500945,2232.16908 168.421882,2232.71567 C168.390336,2232.93377 168.287631,2233.13534 168.129728,2233.28906 L165.538043,2235.81204 L166.151788,2239.37653 C166.245503,2239.9208 165.880252,2240.438 165.335976,2240.53171 C165.118804,2240.56911 164.895361,2240.53372 164.700373,2240.43104 L161.5,2238.74585 Z" id="Star-Copy-2"></path>
        </g>
    </g>
</svg>