<svg xmlns="http://www.w3.org/2000/svg" width="14" height="12" viewBox="0 0 14 12">
    <path fill="#A1ABBA" fill-rule="nonzero" d="M13.973 1.429a5.6 5.6 0 0 1-1.648.477A3.027 3.027 0 0 0 13.586.23c-.554.341-1.17.59-1.824.728A2.792 2.792 0 0 0 9.668 0c-1.585 0-2.87 1.355-2.87 3.025 0 .24.026.47.074.691C4.486 3.597 2.372 2.39.957.563a3.09 3.09 0 0 0-.389 1.522c0 1.052.508 1.977 1.276 2.52a2.749 2.749 0 0 1-1.3-.379v.038c0 1.467.988 2.69 2.303 2.97a2.773 2.773 0 0 1-1.29.051c.367 1.202 1.425 2.078 2.685 2.102A5.57 5.57 0 0 1 0 10.641 7.86 7.86 0 0 0 4.408 12c5.281 0 8.166-4.611 8.166-8.604 0-.128 0-.258-.009-.387A5.98 5.98 0 0 0 14 1.44l-.027-.012z"/>
</svg>
