<svg xmlns="http://www.w3.org/2000/svg" width="15" height="11" viewBox="0 0 15 11">
    <path fill="#A1ABBA" fill-rule="nonzero" d="M14.687 1.699A1.929 1.929 0 0 0 13.38.329C12.212 0 7.507 0 7.507 0S2.813-.007 1.632.329a1.929 1.929 0 0 0-1.305 1.37A21.482 21.482 0 0 0 0 5.507 21.482 21.482 0 0 0 .327 9.3a1.929 1.929 0 0 0 1.305 1.37C2.8 11 7.507 11 7.507 11s4.693 0 5.874-.33a1.929 1.929 0 0 0 1.306-1.37c.216-1.25.32-2.521.312-3.793a21.484 21.484 0 0 0-.312-3.808zM6.005 7.863v-4.72L9.92 5.508 6.005 7.863z"/>
</svg>
