<svg xmlns="http://www.w3.org/2000/svg" width="15" height="15" viewBox="0 0 15 15">
    <path fill="#171A1E" fill-rule="nonzero" d="M12.972 0H2.02A2.02 2.02 0 0 0 0 2.02v10.952a2.02 2.02 0 0 0 2.02 2.02h5.402l.009-5.357H6.039a.328.328 0 0 1-.328-.327L5.704 7.58c0-.182.146-.33.328-.33h1.39V5.582c0-1.936 1.182-2.99 2.91-2.99h1.417c.182 0 .329.147.329.328v1.456a.328.328 0 0 1-.329.329h-.87c-.939 0-1.12.446-1.12 1.102V7.25h2.063c.197 0 .35.172.326.367l-.204 1.727a.328.328 0 0 1-.326.29h-1.85l-.01 5.357h3.214a2.02 2.02 0 0 0 2.02-2.02V2.02A2.02 2.02 0 0 0 12.972 0z"/>
</svg>
