<svg xmlns="http://www.w3.org/2000/svg" width="15" height="15" viewBox="0 0 15 15">
    <path fill="#171A1E" fill-rule="nonzero" d="M13.864 0H1.106C.496 0 0 .48 0 1.073v12.823c0 .593.495 1.073 1.106 1.073h12.758c.61 0 1.105-.48 1.105-1.073V1.073C14.97.48 14.475 0 13.864 0zM4.538 12.53H2.277V5.772h2.261v6.758zM3.408 4.85h-.016c-.758 0-1.25-.52-1.25-1.169 0-.662.506-1.167 1.28-1.167.773 0 1.25.505 1.264 1.167 0 .65-.49 1.169-1.278 1.169zm9.283 7.681h-2.26V8.914c0-.908-.328-1.528-1.146-1.528-.626 0-.997.418-1.16.822-.06.144-.075.346-.075.547v3.775H5.79s.029-6.124 0-6.758h2.26v.958c.3-.46.836-1.117 2.037-1.117 1.488 0 2.604.965 2.604 3.042v3.875zM8.054 6.804c.011-.018.027-.04.042-.061v.061h-.042z"/>
</svg>
