<svg xmlns="http://www.w3.org/2000/svg" width="15" height="14" viewBox="0 0 15 14">
    <g fill="#3B55F7" fill-rule="evenodd">
        <path fill-rule="nonzero" d="M14.68 1.428a1.052 1.052 0 0 0-.775-.32h-3.257V.503a.489.489 0 0 0-.502-.489.489.489 0 0 0-.502.49v.604H5.365V.503a.496.496 0 0 0-.51-.489.488.488 0 0 0-.503.49v.604H1.104c-.31 0-.572.109-.785.32A1.04 1.04 0 0 0 0 2.184V12.91c0 .293.107.553.32.765.207.206.474.311.784.311h12.801c.31 0 .568-.105.776-.311A1.05 1.05 0 0 0 15 12.91V2.184c0-.293-.112-.55-.32-.756zm-.684 11.482c0 .062-.027.089-.09.089H1.103c-.045 0-.1-.054-.1-.09V5.68h12.992v7.23zm0-8.209H1.004V2.184c0-.062.036-.089.1-.089h3.248v.214c0 .275.22.498.502.498a.504.504 0 0 0 .511-.498v-.214h4.28v.214c0 .275.218.498.501.498a.496.496 0 0 0 .502-.498v-.214h3.257c.064 0 .091.027.091.09V4.7z"/>
        <path d="M5.401 7.013H7.6v2.126H5.401zM2.427 7.013h2.208v2.126H2.427zM2.427 9.886h2.208v2.152H2.427z"/>
    </g>
</svg>
